{"glyphs":{"0":{"ha":1017,"x_min":0,"x_max":949,"o":"m 0 475 q 475 949 0 949 q 949 475 949 949 q 475 0 949 0 q 0 475 0 0 m 475 678 q 271 475 271 678 q 475 271 271 271 q 678 475 678 271 q 475 678 678 678 z "},"1":{"ha":475,"x_min":0,"x_max":407,"o":"m 407 0 l 136 0 l 136 678 l 0 678 l 0 949 l 407 949 l 407 0 z "},"2":{"ha":949,"x_min":0,"x_max":882,"o":"m 882 271 l 882 0 l 0 0 l 0 305 q 305 610 0 610 l 576 610 q 610 644 610 610 q 576 678 610 678 l 0 678 l 0 949 l 576 949 q 882 644 882 949 q 576 339 882 339 l 305 339 q 271 305 271 339 l 271 271 l 882 271 z "},"3":{"ha":949,"x_min":0,"x_max":882,"o":"m 0 678 l 0 949 l 576 949 q 882 644 882 949 q 848 475 882 543 q 882 305 882 407 q 576 0 882 0 l 0 0 l 0 271 l 576 271 q 610 305 610 271 q 576 339 610 339 l 0 339 l 0 610 l 576 610 q 610 644 610 610 q 576 678 610 678 l 0 678 z "},"4":{"ha":949,"x_min":0,"x_max":1017,"o":"m 0 949 l 271 949 l 271 475 l 543 475 l 543 949 l 814 949 l 814 475 l 1017 475 l 861 203 l 814 203 l 814 0 l 543 0 l 543 203 l 0 203 l 0 949 z "},"5":{"ha":949,"x_min":0,"x_max":882,"o":"m 882 949 l 882 678 l 271 678 l 271 610 l 576 610 q 882 305 882 610 q 576 0 882 0 l 0 0 l 0 271 l 576 271 q 610 305 610 271 q 576 339 610 339 l 0 339 l 0 949 l 882 949 z "},"6":{"ha":949,"x_min":0,"x_max":882,"o":"m 882 949 l 882 678 l 305 678 q 271 644 271 678 l 271 610 l 576 610 q 882 305 882 610 q 576 0 882 0 l 305 0 q 0 305 0 0 l 0 644 q 305 949 0 949 l 882 949 m 271 339 l 271 305 q 305 271 271 271 l 576 271 q 610 305 610 271 q 576 339 610 339 l 271 339 z "},"7":{"ha":949,"x_min":-67,"x_max":949,"o":"m 949 949 l 267 0 l -67 0 l 420 678 l 0 678 l 0 949 l 949 949 z "},"8":{"ha":949,"x_min":0,"x_max":882,"o":"m 848 475 q 882 305 882 407 q 576 0 882 0 l 305 0 q 0 305 0 0 q 34 475 0 407 q 0 644 0 543 q 305 949 0 949 l 576 949 q 882 644 882 949 q 848 475 882 543 m 576 339 l 305 339 q 271 305 271 339 q 305 271 271 271 l 576 271 q 610 305 610 271 q 576 339 610 339 m 576 610 q 610 644 610 610 q 576 678 610 678 l 305 678 q 271 644 271 678 q 305 610 271 610 l 576 610 z "},"9":{"ha":949,"x_min":0,"x_max":882,"o":"m 0 0 l 0 271 l 576 271 q 610 305 610 271 l 610 339 l 305 339 q 0 644 0 339 q 305 949 0 949 l 576 949 q 882 644 882 949 l 882 305 q 576 0 882 0 l 0 0 m 610 610 l 610 644 q 576 678 610 678 l 305 678 q 271 644 271 678 q 305 610 271 610 l 610 610 z "},"\u0000":{"ha":0,"x_min":0,"x_max":0,"o":""},"\u001d":{"ha":0,"x_min":0,"x_max":0,"o":""}," ":{"ha":271,"x_min":0,"x_max":0,"o":""}," ":{"ha":271,"x_min":0,"x_max":0,"o":""},"!":{"ha":339,"x_min":0,"x_max":271,"o":"m 271 0 l 0 0 l 0 271 l 271 271 l 271 0 m 271 339 l 0 339 l 0 949 l 271 949 l 271 339 z "},"\"":{"ha":678,"x_min":0,"x_max":610,"o":"m 271 543 l 0 543 l 0 949 l 271 949 l 271 543 m 610 543 l 339 543 l 339 949 l 610 949 l 610 543 z "},"#":{"ha":949,"x_min":0,"x_max":882,"o":"m 102 407 l 102 543 l 0 543 l 0 814 l 102 814 l 102 949 l 373 949 l 373 814 l 509 814 l 509 949 l 780 949 l 780 814 l 882 814 l 882 543 l 780 543 l 780 407 l 882 407 l 882 136 l 780 136 l 780 0 l 509 0 l 509 136 l 373 136 l 373 68 l 102 -68 l 102 136 l 0 136 l 0 407 l 102 407 m 373 543 l 373 407 l 509 407 l 509 543 l 373 543 z "},"$":{"ha":949,"x_min":-68,"x_max":949,"o":"m 576 271 q 610 305 610 271 q 576 339 610 339 l 576 271 m 576 949 l 949 949 l 793 678 l 576 678 l 576 610 q 882 305 882 610 q 576 0 882 0 l 576 -68 l 305 -203 l 305 0 l 89 0 l -68 271 l 305 271 l 305 339 q 0 644 0 339 q 305 949 0 949 l 305 1017 l 576 1153 l 576 949 m 305 610 l 305 678 q 271 644 271 678 q 305 610 271 610 z "},"%":{"ha":746,"x_min":-92,"x_max":770,"o":"m 222 0 l -92 0 l 457 949 l 770 949 l 222 0 m 271 678 l 0 678 l 0 949 l 271 949 l 271 678 m 678 0 l 407 0 l 407 271 l 678 271 l 678 0 z "},"&":{"ha":949,"x_min":0,"x_max":882,"o":"m 543 949 l 543 678 l 305 678 q 271 644 271 678 q 305 610 271 610 l 610 610 l 610 746 l 882 746 l 882 0 l 305 0 q 0 305 0 0 q 34 475 0 407 q 0 644 0 543 q 305 949 0 949 l 543 949 m 305 339 q 271 305 271 339 q 305 271 271 271 l 610 271 l 610 339 l 305 339 z "},"'":{"ha":339,"x_min":0,"x_max":271,"o":"m 271 678 l 0 543 l 0 949 l 271 949 l 271 678 z "},"(":{"ha":543,"x_min":0,"x_max":475,"o":"m 0 543 q 475 1017 0 1017 l 475 746 q 271 543 271 746 l 271 407 q 475 203 271 203 l 475 -68 q 0 407 0 -68 l 0 543 z "},")":{"ha":543,"x_min":0,"x_max":475,"o":"m 475 407 q 0 -68 475 -68 l 0 203 q 203 407 203 203 l 203 543 q 0 746 203 746 l 0 1017 q 475 543 475 1017 l 475 407 z "},"*":{"ha":882,"x_min":-14,"x_max":827,"o":"m 543 308 l 543 136 l 271 136 l 271 308 l 122 222 l -14 456 l 136 543 l -14 629 l 122 863 l 271 777 l 271 949 l 543 949 l 543 777 l 692 863 l 827 629 l 678 543 l 827 456 l 692 222 l 543 308 z "},"+":{"ha":746,"x_min":0,"x_max":678,"o":"m 475 610 l 678 610 l 678 339 l 475 339 l 475 136 l 203 136 l 203 339 l 0 339 l 0 610 l 203 610 l 203 814 l 475 814 l 475 610 z "},",":{"ha":339,"x_min":0,"x_max":271,"o":"m 271 0 l 0 -136 l 0 271 l 271 271 l 271 0 z "},"-":{"ha":746,"x_min":0,"x_max":678,"o":"m 678 339 l 0 339 l 0 610 l 678 610 l 678 339 z "},"­":{"ha":746,"x_min":0,"x_max":678,"o":"m 678 339 l 0 339 l 0 610 l 678 610 l 678 339 z "},".":{"ha":339,"x_min":0,"x_max":271,"o":"m 271 0 l 0 0 l 0 271 l 271 271 l 271 0 z "},"/":{"ha":746,"x_min":-92,"x_max":770,"o":"m 222 0 l -92 0 l 457 949 l 770 949 l 222 0 z "},":":{"ha":339,"x_min":0,"x_max":271,"o":"m 271 0 l 0 0 l 0 271 l 271 271 l 271 0 m 271 423 l 0 423 l 0 694 l 271 694 l 271 423 z "},";":{"ha":339,"x_min":0,"x_max":271,"o":"m 271 0 l 0 -136 l 0 271 l 271 271 l 271 0 m 271 423 l 0 423 l 0 694 l 271 694 l 271 423 z "},";":{"ha":339,"x_min":0,"x_max":271,"o":"m 271 0 l 0 -136 l 0 271 l 271 271 l 271 0 m 271 423 l 0 423 l 0 694 l 271 694 l 271 423 z "},"<":{"ha":746,"x_min":3,"x_max":677,"o":"m 3 475 l 344 949 l 677 949 l 336 475 l 677 0 l 344 0 l 3 475 z "},"=":{"ha":746,"x_min":0,"x_max":678,"o":"m 678 509 l 0 509 l 0 780 l 678 780 l 678 509 m 678 170 l 0 170 l 0 441 l 678 441 l 678 170 z "},">":{"ha":746,"x_min":1,"x_max":675,"o":"m 342 475 l 1 949 l 334 949 l 675 475 l 334 0 l 1 0 l 342 475 z "},"?":{"ha":949,"x_min":0,"x_max":882,"o":"m 0 678 l 0 949 l 576 949 q 882 644 882 949 q 576 339 882 339 l 203 339 l 203 610 l 576 610 q 610 644 610 610 q 576 678 610 678 l 0 678 m 475 0 l 203 0 l 203 271 l 475 271 l 475 0 z "},"@":{"ha":1017,"x_min":0,"x_max":949,"o":"m 0 475 q 475 949 0 949 q 949 475 949 949 q 475 0 949 0 q 0 475 0 0 m 339 475 q 475 610 339 610 q 610 475 610 610 q 475 339 610 339 q 339 475 339 339 m 475 678 q 271 475 271 678 q 475 271 271 271 q 678 475 678 271 q 475 678 678 678 z "},"A":{"ha":1153,"x_min":-92,"x_max":1177,"o":"m 707 271 l 543 556 l 221 0 l -92 0 l 543 1098 l 1177 0 l 277 0 l 433 271 l 707 271 z "},"B":{"ha":949,"x_min":-68,"x_max":882,"o":"m 89 678 l -68 949 l 576 949 q 882 644 882 949 q 848 475 882 543 q 882 305 882 407 q 576 0 882 0 l 481 0 l 323 271 l 576 271 q 610 305 610 271 q 576 339 610 339 l 285 339 l 128 610 l 576 610 q 610 644 610 610 q 576 678 610 678 l 89 678 z "},"C":{"ha":1085,"x_min":0,"x_max":1085,"o":"m 475 949 l 1085 949 l 928 678 l 475 678 q 271 475 271 678 q 475 271 271 271 l 693 271 l 536 0 l 475 0 q 0 475 0 0 q 475 949 0 949 z "},"D":{"ha":949,"x_min":-68,"x_max":882,"o":"m 407 678 l 89 678 l -68 949 l 407 949 q 882 475 882 949 q 407 0 882 0 l 0 0 l 0 610 l 271 610 l 271 271 l 407 271 q 610 475 610 271 q 407 678 610 678 z "},"E":{"ha":949,"x_min":0,"x_max":949,"o":"m 949 949 l 793 678 l 271 678 l 271 610 l 753 610 l 597 339 l 271 339 l 271 271 l 557 271 l 401 0 l 0 0 l 0 949 l 949 949 z "},"F":{"ha":949,"x_min":0,"x_max":949,"o":"m 949 949 l 793 678 l 271 678 l 271 610 l 753 610 l 597 339 l 271 339 l 271 68 l 0 -68 l 0 949 l 949 949 z "},"G":{"ha":949,"x_min":0,"x_max":949,"o":"m 475 949 l 949 949 l 793 678 l 475 678 q 271 475 271 678 q 475 271 271 271 l 610 271 l 610 610 l 882 610 l 882 0 l 475 0 q 0 475 0 0 q 475 949 0 949 z "},"H":{"ha":949,"x_min":-203,"x_max":882,"o":"m 271 271 l 271 68 l 0 -68 l 0 271 l -47 271 l -203 543 l 0 543 l 0 949 l 271 949 l 271 543 l 610 543 l 610 949 l 882 949 l 882 0 l 610 0 l 610 271 l 271 271 z "},"I":{"ha":339,"x_min":0,"x_max":271,"o":"m 271 0 l 0 0 l 0 949 l 271 949 l 271 0 z "},"J":{"ha":882,"x_min":0,"x_max":814,"o":"m 0 407 l 271 543 l 271 407 q 407 271 271 271 q 543 407 543 271 l 543 949 l 814 949 l 814 407 q 407 0 814 0 q 0 407 0 0 z "},"K":{"ha":949,"x_min":0,"x_max":973,"o":"m 0 949 l 271 949 l 271 502 l 882 1069 l 882 699 l 680 511 l 973 0 l 661 0 l 475 321 l 0 -119 l 0 949 z "},"L":{"ha":746,"x_min":0,"x_max":746,"o":"m 0 949 l 271 949 l 271 271 l 746 271 l 589 0 l 0 0 l 0 949 z "},"M":{"ha":1017,"x_min":0,"x_max":949,"o":"m 271 400 l 271 0 l 0 0 l 0 1021 l 475 581 l 949 1021 l 949 68 l 678 -68 l 678 400 l 475 211 l 271 400 z "},"N":{"ha":949,"x_min":0,"x_max":882,"o":"m 271 448 l 271 0 l 0 0 l 0 1069 l 610 502 l 610 949 l 882 949 l 882 -119 l 271 448 z "},"O":{"ha":1017,"x_min":0,"x_max":949,"o":"m 0 475 q 475 949 0 949 q 949 475 949 949 q 475 0 949 0 q 0 475 0 0 m 475 678 q 271 475 271 678 q 475 271 271 271 q 678 475 678 271 q 475 678 678 678 z "},"P":{"ha":949,"x_min":-68,"x_max":882,"o":"m 89 678 l -68 949 l 576 949 q 882 644 882 949 q 576 339 882 339 l 271 339 l 271 68 l 0 -68 l 0 610 l 576 610 q 610 644 610 610 q 576 678 610 678 l 89 678 z "},"Q":{"ha":1017,"x_min":0,"x_max":973,"o":"m 0 475 q 475 949 0 949 q 949 475 949 949 q 874 172 949 286 l 973 0 l 661 0 l 649 20 q 475 0 572 0 q 0 475 0 0 m 475 678 q 271 475 271 678 q 475 271 271 271 q 503 273 490 271 l 386 475 l 678 475 q 475 678 678 678 z "},"R":{"ha":949,"x_min":-68,"x_max":973,"o":"m 89 678 l -68 949 l 576 949 q 882 644 882 949 q 755 378 882 448 l 973 0 l 661 0 l 465 339 l 271 339 l 271 68 l 0 -68 l 0 610 l 576 610 q 610 644 610 610 q 576 678 610 678 l 89 678 z "},"S":{"ha":949,"x_min":-68,"x_max":949,"o":"m 89 0 l -68 271 l 576 271 q 610 305 610 271 q 576 339 610 339 l 305 339 q 0 644 0 339 q 305 949 0 949 l 949 949 l 793 678 l 305 678 q 271 644 271 678 q 305 610 271 610 l 576 610 q 882 305 882 610 q 576 0 882 0 l 89 0 z "},"T":{"ha":949,"x_min":-68,"x_max":949,"o":"m 576 678 l 576 68 l 305 -68 l 305 678 l 89 678 l -68 949 l 949 949 l 793 678 l 576 678 z "},"U":{"ha":882,"x_min":0,"x_max":814,"o":"m 0 407 l 0 949 l 271 949 l 271 407 q 407 271 271 271 q 543 407 543 271 l 543 949 l 814 949 l 814 407 q 407 0 814 0 q 0 407 0 0 z "},"V":{"ha":1153,"x_min":-92,"x_max":1177,"o":"m 864 949 l 1177 949 l 543 -149 l -92 949 l 221 949 l 543 393 l 864 949 z "},"W":{"ha":1017,"x_min":0,"x_max":949,"o":"m 678 549 l 678 949 l 949 949 l 949 -72 l 475 369 l 0 -72 l 0 1017 l 271 882 l 271 549 l 475 739 l 678 549 z "},"X":{"ha":949,"x_min":-67,"x_max":949,"o":"m 274 475 l -67 949 l 267 949 l 441 707 l 615 949 l 949 949 l 608 475 l 949 0 l 615 0 l 441 243 l 267 0 l -67 0 l 274 475 z "},"Y":{"ha":949,"x_min":-67,"x_max":949,"o":"m 305 431 l -67 949 l 267 949 l 441 707 l 615 949 l 949 949 l 576 431 l 576 68 l 305 -68 l 305 431 z "},"Z":{"ha":949,"x_min":-67,"x_max":949,"o":"m 420 678 l 0 678 l 0 949 l 949 949 l 461 271 l 882 271 l 882 0 l -67 0 l 420 678 z "},"[":{"ha":543,"x_min":0,"x_max":475,"o":"m 475 1017 l 475 746 l 271 746 l 271 203 l 475 203 l 475 -68 l 0 -68 l 0 1017 l 475 1017 z "},"\\":{"ha":746,"x_min":-92,"x_max":770,"o":"m 222 949 l 770 0 l 457 0 l -92 949 l 222 949 z "},"]":{"ha":543,"x_min":0,"x_max":475,"o":"m 0 -68 l 0 203 l 203 203 l 203 746 l 0 746 l 0 1017 l 475 1017 l 475 -68 l 0 -68 z "},"^":{"ha":339,"x_min":0,"x_max":271,"o":"m 271 543 l 0 543 l 0 949 l 271 949 l 271 543 z "},"_":{"ha":814,"x_min":0,"x_max":746,"o":"m 746 0 l 0 0 l 0 271 l 746 271 l 746 0 z "},"`":{"ha":339,"x_min":0,"x_max":271,"o":"m 271 543 l 0 543 l 0 949 l 271 949 l 271 543 z "},"a":{"ha":1153,"x_min":-92,"x_max":1177,"o":"m 707 271 l 543 556 l 221 0 l -92 0 l 543 1098 l 1177 0 l 277 0 l 433 271 l 707 271 z "},"b":{"ha":949,"x_min":-68,"x_max":882,"o":"m 89 678 l -68 949 l 576 949 q 882 644 882 949 q 848 475 882 543 q 882 305 882 407 q 576 0 882 0 l 481 0 l 323 271 l 576 271 q 610 305 610 271 q 576 339 610 339 l 285 339 l 128 610 l 576 610 q 610 644 610 610 q 576 678 610 678 l 89 678 z "},"c":{"ha":1085,"x_min":0,"x_max":1085,"o":"m 475 949 l 1085 949 l 928 678 l 475 678 q 271 475 271 678 q 475 271 271 271 l 693 271 l 536 0 l 475 0 q 0 475 0 0 q 475 949 0 949 z "},"d":{"ha":949,"x_min":-68,"x_max":882,"o":"m 407 678 l 89 678 l -68 949 l 407 949 q 882 475 882 949 q 407 0 882 0 l 0 0 l 0 610 l 271 610 l 271 271 l 407 271 q 610 475 610 271 q 407 678 610 678 z "},"e":{"ha":949,"x_min":0,"x_max":949,"o":"m 949 949 l 793 678 l 271 678 l 271 610 l 753 610 l 597 339 l 271 339 l 271 271 l 557 271 l 401 0 l 0 0 l 0 949 l 949 949 z "},"f":{"ha":949,"x_min":0,"x_max":949,"o":"m 949 949 l 793 678 l 271 678 l 271 610 l 753 610 l 597 339 l 271 339 l 271 68 l 0 -68 l 0 949 l 949 949 z "},"g":{"ha":949,"x_min":0,"x_max":949,"o":"m 475 949 l 949 949 l 793 678 l 475 678 q 271 475 271 678 q 475 271 271 271 l 610 271 l 610 610 l 882 610 l 882 0 l 475 0 q 0 475 0 0 q 475 949 0 949 z "},"h":{"ha":949,"x_min":-203,"x_max":882,"o":"m 271 271 l 271 68 l 0 -68 l 0 271 l -47 271 l -203 543 l 0 543 l 0 949 l 271 949 l 271 543 l 610 543 l 610 949 l 882 949 l 882 0 l 610 0 l 610 271 l 271 271 z "},"i":{"ha":339,"x_min":0,"x_max":271,"o":"m 271 0 l 0 0 l 0 949 l 271 949 l 271 0 z "},"j":{"ha":882,"x_min":0,"x_max":814,"o":"m 0 407 l 271 543 l 271 407 q 407 271 271 271 q 543 407 543 271 l 543 949 l 814 949 l 814 407 q 407 0 814 0 q 0 407 0 0 z "},"k":{"ha":949,"x_min":0,"x_max":973,"o":"m 0 949 l 271 949 l 271 502 l 882 1069 l 882 699 l 680 511 l 973 0 l 661 0 l 475 321 l 0 -119 l 0 949 z "},"l":{"ha":746,"x_min":0,"x_max":746,"o":"m 0 949 l 271 949 l 271 271 l 746 271 l 589 0 l 0 0 l 0 949 z "},"m":{"ha":1017,"x_min":0,"x_max":949,"o":"m 271 400 l 271 0 l 0 0 l 0 1021 l 475 581 l 949 1021 l 949 68 l 678 -68 l 678 400 l 475 211 l 271 400 z "},"n":{"ha":949,"x_min":0,"x_max":882,"o":"m 271 448 l 271 0 l 0 0 l 0 1069 l 610 502 l 610 949 l 882 949 l 882 -119 l 271 448 z "},"o":{"ha":1017,"x_min":0,"x_max":949,"o":"m 0 475 q 475 949 0 949 q 949 475 949 949 q 475 0 949 0 q 0 475 0 0 m 475 678 q 271 475 271 678 q 475 271 271 271 q 678 475 678 271 q 475 678 678 678 z "},"p":{"ha":949,"x_min":-68,"x_max":882,"o":"m 89 678 l -68 949 l 576 949 q 882 644 882 949 q 576 339 882 339 l 271 339 l 271 68 l 0 -68 l 0 610 l 576 610 q 610 644 610 610 q 576 678 610 678 l 89 678 z "},"q":{"ha":1017,"x_min":0,"x_max":973,"o":"m 0 475 q 475 949 0 949 q 949 475 949 949 q 874 172 949 286 l 973 0 l 661 0 l 649 20 q 475 0 572 0 q 0 475 0 0 m 475 678 q 271 475 271 678 q 475 271 271 271 q 503 273 490 271 l 386 475 l 678 475 q 475 678 678 678 z "},"r":{"ha":949,"x_min":-68,"x_max":973,"o":"m 89 678 l -68 949 l 576 949 q 882 644 882 949 q 755 378 882 448 l 973 0 l 661 0 l 465 339 l 271 339 l 271 68 l 0 -68 l 0 610 l 576 610 q 610 644 610 610 q 576 678 610 678 l 89 678 z "},"s":{"ha":949,"x_min":-68,"x_max":949,"o":"m 89 0 l -68 271 l 576 271 q 610 305 610 271 q 576 339 610 339 l 305 339 q 0 644 0 339 q 305 949 0 949 l 949 949 l 793 678 l 305 678 q 271 644 271 678 q 305 610 271 610 l 576 610 q 882 305 882 610 q 576 0 882 0 l 89 0 z "},"t":{"ha":949,"x_min":-68,"x_max":949,"o":"m 576 678 l 576 68 l 305 -68 l 305 678 l 89 678 l -68 949 l 949 949 l 793 678 l 576 678 z "},"u":{"ha":882,"x_min":0,"x_max":814,"o":"m 0 407 l 0 949 l 271 949 l 271 407 q 407 271 271 271 q 543 407 543 271 l 543 949 l 814 949 l 814 407 q 407 0 814 0 q 0 407 0 0 z "},"v":{"ha":1153,"x_min":-92,"x_max":1177,"o":"m 864 949 l 1177 949 l 543 -149 l -92 949 l 221 949 l 543 393 l 864 949 z "},"w":{"ha":1017,"x_min":0,"x_max":949,"o":"m 678 549 l 678 949 l 949 949 l 949 -72 l 475 369 l 0 -72 l 0 1017 l 271 882 l 271 549 l 475 739 l 678 549 z "},"x":{"ha":949,"x_min":-67,"x_max":949,"o":"m 274 475 l -67 949 l 267 949 l 441 707 l 615 949 l 949 949 l 608 475 l 949 0 l 615 0 l 441 243 l 267 0 l -67 0 l 274 475 z "},"y":{"ha":949,"x_min":-67,"x_max":949,"o":"m 305 431 l -67 949 l 267 949 l 441 707 l 615 949 l 949 949 l 576 431 l 576 68 l 305 -68 l 305 431 z "},"z":{"ha":949,"x_min":-67,"x_max":949,"o":"m 420 678 l 0 678 l 0 949 l 949 949 l 461 271 l 882 271 l 882 0 l -67 0 l 420 678 z "},"{":{"ha":678,"x_min":0,"x_max":610,"o":"m 138 610 q 610 1017 171 1017 l 610 746 q 407 543 407 746 l 339 475 l 407 407 q 610 203 407 203 l 610 -68 q 138 339 171 -68 l 0 339 l 0 610 l 138 610 z "},"|":{"ha":339,"x_min":0,"x_max":271,"o":"m 271 -68 l 0 -68 l 0 1017 l 271 1017 l 271 -68 z "},"}":{"ha":678,"x_min":0,"x_max":610,"o":"m 472 339 q 0 -68 439 -68 l 0 203 q 203 407 203 203 l 271 475 l 203 543 q 0 746 203 746 l 0 1017 q 472 610 439 1017 l 610 610 l 610 339 l 472 339 z "},"~":{"ha":746,"x_min":0,"x_max":678,"o":"m 678 339 l 0 339 l 0 610 l 678 610 l 678 339 z "}}}
